<?xml version="1.0" encoding="utf-8"?>
<!-- Generator: Adobe Illustrator 23.0.2, SVG Export Plug-In . SVG Version: 6.00 Build 0)  -->
<svg version="1.1" xmlns="http://www.w3.org/2000/svg" xmlns:xlink="http://www.w3.org/1999/xlink" x="0px" y="0px"
	 viewBox="0 0 1835.61 251.45" style="enable-background:new 0 0 1835.61 251.45;" xml:space="preserve">
<style type="text/css">
	.st0{fill:#FFFFFF;}
	.st1{fill:#94BC44;}
	.st2{fill:#FFFCFE;}
</style>
<g id="Background">
</g>
<g id="Text">
</g>
<g id="Object">
	<g>
		<g>
			<circle class="st0" cx="63.23" cy="122.35" r="40.48"/>
			<path class="st1" d="M90.9,71.62c1.2,0,2.35-0.44,3.26-1.22c12.66-10.76,29.05-17.27,46.93-17.27c15.71,0,30.63,4.92,43.19,14.24
				c6.64,4.93,15.96,4.89,21.95-0.82c7.69-7.33,6.73-19.42-1.38-25.53c-18.5-13.94-40.54-21.31-63.76-21.31
				c-35.31,0-66.63,17.36-85.9,43.99c-2.39,3.3,0.03,7.92,4.1,7.92H90.9z"/>
			<path class="st1" d="M286.76,90.05c-6.67-6.37-17.25-6.13-23.62,0.55c-3.35,3.5-9.66,11.4-20.54,25.06
				c-16.95,21.28-45.33,56.91-56.42,65.83c-10.86,8.74-23.84,16.83-45.09,16.83c-21.14,0-40.19-9.1-53.47-23.57
				c-0.96-1.05-2.31-1.68-3.73-1.68H54.79c-3.9,0-6.33,4.27-4.31,7.6c18.61,30.59,52.25,51.07,90.6,51.07
				c31.87,0,52.04-12.94,66.04-24.21c12.92-10.4,35.54-38.33,61.61-71.04c7.91-9.94,16.1-20.21,18.57-22.8
				C293.68,107,293.43,96.43,286.76,90.05z"/>
		</g>
		<g>
			<g>
				
					<ellipse transform="matrix(0.1401 -0.9901 0.9901 0.1401 202.8892 491.84)" class="st1" cx="384.62" cy="129.11" rx="40.48" ry="40.48"/>
			</g>
			<g>
				<path class="st0" d="M356.96,179.83c-1.2,0-2.35,0.44-3.26,1.22c-12.66,10.76-29.05,17.27-46.93,17.27
					c-15.71,0-30.63-4.92-43.19-14.24c-6.64-4.93-15.96-4.89-21.95,0.82c-7.69,7.33-6.73,19.42,1.38,25.53
					c18.5,13.94,40.54,21.31,63.76,21.31c35.31,0,66.63-17.36,85.9-43.99c2.39-3.3-0.03-7.92-4.1-7.92H356.96z"/>
				<path class="st0" d="M161.1,161.4c6.67,6.37,17.25,6.13,23.62-0.54c3.34-3.5,9.66-11.4,20.54-25.06
					c16.95-21.28,45.33-56.91,56.42-65.83c10.86-8.74,23.84-16.83,45.09-16.83c21.14,0,40.19,9.1,53.47,23.57
					c0.96,1.05,2.31,1.68,3.73,1.68h29.09c3.9,0,6.33-4.27,4.31-7.6c-18.61-30.59-52.25-51.07-90.6-51.07
					c-31.87,0-52.04,12.94-66.04,24.21c-12.92,10.4-35.54,38.33-61.61,71.04c-7.91,9.94-16.1,20.21-18.57,22.8
					C154.18,144.45,154.42,155.03,161.1,161.4z"/>
			</g>
		</g>
	</g>
	<g>
		<path class="st1" d="M559.95,54.02h26.22v139.26h-16.29v0.2l-73.1-93.96v93.76h-26.22V54.21h21.26l68.14,86.22V54.02z"/>
		<path class="st1" d="M723.84,193.27H619.75c0-46.29,0-92.77,0-139.06h104.09v25.43h-78.07v31.98h75.29v24.43h-75.29v31.39h78.07
			V193.27z"/>
		<path class="st1" d="M876.41,122.55c0.6,35.16-20.86,70.72-69.53,70.72c-17.08,0-37.55,0-54.63,0V54.21c17.08,0,37.55,0,54.63,0
			C854.56,54.21,875.82,88.18,876.41,122.55z M778.28,168.04h28.61c31.59,0,44.1-23.04,43.5-45.69
			c-0.6-21.65-13.31-43.31-43.5-43.31h-28.61V168.04z"/>
		<path class="st2" d="M1076.26,175.79c-14.3,14.1-32.78,20.66-52.84,20.66c-51.65,0-73.5-35.56-73.7-71.71
			c-0.2-36.35,23.44-73.3,73.7-73.3c18.87,0,36.75,7.15,51.05,21.26l-17.48,16.89c-9.14-8.94-21.46-13.11-33.57-13.11
			c-33.57,0-48.07,25.03-47.88,48.27c0.2,23.04,13.51,47.08,47.88,47.08c12.12,0,25.83-4.97,34.96-14.1L1076.26,175.79z"/>
		<path class="st2" d="M1194.46,144.4c0,28.21-19.27,51.05-51.05,51.05c-31.78,0-50.86-22.85-50.86-51.05
			c0-28.01,19.47-51.05,50.66-51.05S1194.46,116.39,1194.46,144.4z M1116.79,144.4c0,14.9,8.94,28.81,26.62,28.81
			c17.68,0,26.62-13.91,26.62-28.81c0-14.7-10.33-29-26.62-29C1125.93,115.4,1116.79,129.7,1116.79,144.4z"/>
		<path class="st2" d="M1293.2,193.27v-51.25c0-14.9-8.14-26.22-23.64-26.22c-14.9,0-25.03,12.52-25.03,27.41v50.06h-24.04V95.14
			h21.65l1.59,13.31c9.93-9.73,19.87-14.7,32.18-14.7c23.04,0,41.52,17.28,41.52,48.07v51.45H1293.2z"/>
		<path class="st2" d="M1420.34,193.27v-51.25c0-14.9-8.14-26.22-23.64-26.22c-14.9,0-25.03,12.52-25.03,27.41v50.06h-24.04V95.14
			h21.65l1.59,13.31c9.93-9.73,19.87-14.7,32.18-14.7c23.04,0,41.52,17.28,41.52,48.07v51.45H1420.34z"/>
		<path class="st2" d="M1496.03,152.95c1.59,12.12,12.12,20.86,29.2,20.86c8.94,0,20.66-3.38,26.22-9.14l15.5,15.3
			c-10.33,10.73-27.21,15.89-42.11,15.89c-33.77,0-53.83-20.86-53.83-52.25c0-29.8,20.26-51.25,52.05-51.25
			c32.78,0,53.24,20.26,49.46,60.59H1496.03z M1549.27,132.88c-1.59-12.71-11.52-19.07-25.43-19.07c-13.11,0-23.84,6.36-27.41,19.07
			H1549.27z"/>
		<path class="st2" d="M1685.15,180.76c-11.32,11.12-23.24,15.49-37.74,15.49c-28.41,0-52.05-17.08-52.05-51.85
			c0-34.76,23.64-51.85,52.05-51.85c13.91,0,24.63,3.97,35.36,14.5l-15.3,16.09c-5.76-5.17-12.91-7.75-19.67-7.75
			c-16.29,0-28.21,11.92-28.21,29c0,18.67,12.71,28.61,27.81,28.61c7.75,0,15.5-2.19,21.46-8.15L1685.15,180.76z"/>
		<path class="st2" d="M1739.98,67.72v27.81H1767v20.86h-27.22v42.31c0,9.34,5.17,13.91,12.71,13.91c3.77,0,8.14-1.19,11.72-2.98
			l6.75,20.66c-6.95,2.78-12.71,3.97-20.06,4.17c-21.26,0.79-35.16-11.32-35.16-35.76v-42.31h-18.28V95.54h18.28V70.31
			L1739.98,67.72z"/>
		<path class="st1" d="M1823.02,180.76c0,18.87-28.61,18.87-28.61,0C1794.41,161.89,1823.02,161.89,1823.02,180.76z"/>
	</g>
	<g>
	</g>
	<g>
	</g>
	<g>
	</g>
	<g>
	</g>
	<g>
	</g>
	<g>
	</g>
</g>
</svg>
